<svg xmlns="http://www.w3.org/2000/svg" viewBox="0 0 2012 855.08"><defs><style>.cls-1{fill:#f1f2f2;}</style></defs><title>Jutsu Wordmark</title><g id="Layer_3" data-name="Layer 3"><path id="Jutsu_White" data-name="Jutsu White" class="cls-1" d="M354.6,86.68V597A64.06,64.06,0,0,1,290.54,661H109.62A64.06,64.06,0,0,1,45.56,597V505.4A128.41,128.41,0,0,0,160,575.61h75.75V69.08A55.27,55.27,0,0,0,219.28,29.7h78.34A57,57,0,0,1,354.6,86.68ZM946,29.7H800.91a54.76,54.76,0,0,1,17.41,40.05V182.88l20.18-22.32a138,138,0,0,1,102.37-45.45H946V649c0,73.35,43.17,141.12,118.84,180.12h0v-714h5.1a138,138,0,0,1,102.37,45.45l20.18,22.32V69.75a54.8,54.8,0,0,1,17.41-40H946Zm-250.07,0H617.58a55.3,55.3,0,0,1,16.47,39.38V575.61H544V86.68a57,57,0,0,0-57-57H408.68a55.31,55.31,0,0,1,16.48,39.38V597A64.06,64.06,0,0,0,489.22,661H688.83A64.06,64.06,0,0,0,752.89,597V86.68A57,57,0,0,0,695.91,29.7Zm1181.55,0h-78.34a55.31,55.31,0,0,1,16.48,39.38V575.61h-90.06V86.68a57,57,0,0,0-57-57h-78.34a55.27,55.27,0,0,1,16.48,39.38V597A64.07,64.07,0,0,0,1670.77,661h199.61A64.06,64.06,0,0,0,1934.44,597V86.68A57,57,0,0,0,1877.46,29.7Zm-402,0H1315.18a64.06,64.06,0,0,0-64.06,64.06v80.15h0v70.63a84.81,84.81,0,0,0,41.41,72.87l128.14,76.32V575.61h-55.1a128.38,128.38,0,0,1-114.45-70.21V597A64.06,64.06,0,0,0,1315.18,661h160.27A64.06,64.06,0,0,0,1539.51,597V456.77h0v-62.9A84.8,84.8,0,0,0,1498.09,321L1370,244.68V115.11h55.1a128.37,128.37,0,0,1,114.45,70.21V93.76A64.06,64.06,0,0,0,1475.45,29.7Z"/></g></svg>