<svg id="black_and_white" data-name="black and white" xmlns="http://www.w3.org/2000/svg" viewBox="0 0 2000 2000"><defs><style>.cls-1{fill:#f1f2f2;}</style></defs><title>Artboard 1 copy 2</title><path id="knegative" class="cls-1" d="M1914,959.21h0c-45.43-58.61-92.14-116.4-138.89-171.86-5.07-87.8-12.86-168.6-23.81-246.72-21.13-150.73-141.16-270.75-291.88-291.89-77.87-10.93-158.67-18.73-246.72-23.81-55.4-46.7-113.19-93.4-171.88-138.9a66.58,66.58,0,0,0-81.55,0c-60.18,46.64-119,94.21-175,141.46-84.08,5.65-164.8,13.62-240.07,23.7C391.09,271.72,269.42,392,248.31,543.8c-10.71,77-18.37,156.7-23.4,243.57-46.77,55.48-93.46,113.26-138.86,171.84a66.55,66.55,0,0,0,0,81.56c46.57,60.1,94.13,118.92,141.43,174.93,5.6,83.21,13.43,162.87,23.3,236.93,20.52,154.1,142.47,276.06,296.57,296.6,74,9.86,153.72,17.69,236.92,23.28,56,47.3,114.83,94.86,175,141.45a66.58,66.58,0,0,0,81.56,0c58.72-45.51,116.5-92.21,171.87-138.89,87-5,166.79-12.7,243.52-23.4,151.78-21.1,272.1-142.76,292.62-295.86,10.06-75,18-155.76,23.7-240.06,47.37-56.1,94.93-114.93,141.46-175A66.57,66.57,0,0,0,1914,959.21Zm-19.76,66.25q-72.56,93.63-146.1,180.43c-5.51,84.37-13.45,167.34-24.08,246.6-19,142-130.58,254.86-271.28,274.42-79.56,11.09-161.57,18.76-249.83,23.67q-85.67,72.47-177.44,143.62a41.58,41.58,0,0,1-50.93,0q-93.61-72.56-180.4-146.09c-83.34-5.44-165.29-13.25-243.48-23.66-142.93-19-256.06-132.19-275.09-275.12-10.41-78.15-18.23-160.11-23.68-243.49q-73.73-87-146.07-180.38a41.56,41.56,0,0,1,0-50.93q71.31-92,143.59-177.41c4.91-88.3,12.6-170.33,23.67-249.87C292.64,406.56,405.5,295,547.5,276c79.25-10.61,162.24-18.57,246.61-24.08q87-73.74,180.42-146.1a41.59,41.59,0,0,1,50.93,0q92,71.33,177.44,143.62c89.44,5,172.5,12.78,253,24.08,139.72,19.59,251,130.88,270.6,270.6,11.3,80.64,19.13,163.69,24.08,253q72.47,85.67,143.62,177.43A41.56,41.56,0,0,1,1894.19,1025.46ZM439.29,1414.17q71.64,75,146.51,146.52A224.5,224.5,0,0,1,439.29,1414.17Zm1157.78-38.36q29.92-32.07,59.37-65c-4.22,44.36-9.12,88.06-14.83,130.6-14.08,105.16-96.46,188.69-200.32,203.14-43.71,6.08-88.27,11.07-134.18,15.18q33.15-29.7,65.56-59.81c3.51-.46,7-.79,10.55-1.29,110.43-15.37,198-104,213-215.56C1596.52,1380.69,1596.76,1378.24,1597.07,1375.81Zm-245.35-628a79.23,79.23,0,0,1,0,111.91l-81.53,81.54L1239,910l73.24-73a55.53,55.53,0,0,0-.14-78.8L1241.18,688a55.63,55.63,0,0,0-78.29.18L948,902.73c-10.07-10.35-20.19-20.65-30.13-31.12l-.45-.48L1140.3,648.27c29.9-29.9,82-29.9,111.91,0Zm212.8-157.94q-75.4-79.12-154.37-154.37A222.53,222.53,0,0,1,1564.52,589.84ZM1372.68,400.06q-32.37-30.15-65.57-59.83c47,4.21,92.57,9.33,137.22,15.59,103.2,14.48,185.36,96.64,199.84,199.82,6.27,44.72,11.38,90.3,15.58,137.24q-29.71-33.15-59.82-65.57c-.57-4.39-1-8.8-1.61-13.19-15.39-109.7-102.75-197.06-212.45-212.45C1381.48,401.06,1377.07,400.63,1372.68,400.06ZM400,627.34q-30.13,32.35-59.8,65.55c4.12-45.92,9.11-90.49,15.19-134.19,14.45-103.86,98-186.24,203.13-200.32,42.54-5.7,86.24-10.6,130.6-14.82Q656.31,373,624.19,402.92c-2.43.31-4.88.55-7.31.88-111.57,15-200.21,102.54-215.58,213C400.82,620.29,400.47,623.82,400,627.34Zm35.75-37.83c21.12-72.09,78.05-129.15,150.61-150.76Q509.22,512.42,435.77,589.51ZM624.22,1597.1q32.07,29.93,65,59.38c-43.35-4.13-86-8.91-127.56-14.46C455.8,1628,372.05,1544.17,358,1438.34c-5.53-41.53-10.31-84.19-14.44-127.55q29.49,32.84,59.37,65c.2,1.57.35,3.14.56,4.71,14.95,112.27,103.83,201.14,216.1,216.08C621.1,1596.75,622.66,1596.89,624.22,1597.1Zm937-183.47c-21.61,72.53-78.65,129.45-150.72,150.57Q1487.73,1490.61,1561.23,1413.63ZM918.71,969.45a43.82,43.82,0,0,1,1.53,60.83L707.83,817.53a27.89,27.89,0,0,1-.09-39.24l70.17-70.91a27.69,27.69,0,0,1,19.76-8.25h0a27.65,27.65,0,0,1,19.7,8.19l73,73.27-29.6,29.61c-14.4-15.78-28.73-31.63-42.7-47.83a46.78,46.78,0,0,0-4.34-4.34,41.68,41.68,0,0,0-54.44,63.12c37.4,32.26,73.4,65.93,109.23,99.76Q893.9,944.93,918.71,969.45ZM1079.4,1132l-219.73,219.7c-29.87,29.88-82,29.88-111.89,0l-99.51-99.52a79.11,79.11,0,0,1,0-111.9l81.53-81.53L761,1090l-73.23,73a55.52,55.52,0,0,0,.15,78.8l70.91,70.19a55.6,55.6,0,0,0,78.28-.18l211.81-211.45c9.55,9.86,19.17,19.67,28.59,29.67Zm50.29-213.74,222,222a79.13,79.13,0,0,1,0,111.9l-99.54,99.52c-29.87,29.88-82,29.88-111.89,0l-81.53-81.53L1090,1239l73,73.22a55.11,55.11,0,0,0,39.34,16.34h.09a55,55,0,0,0,39.38-16.45l70.2-70.93a55.7,55.7,0,0,0-.18-78.31l-213.72-214c9.58-9.33,19.11-18.71,28.82-27.91ZM966.35,1079.77a43.94,43.94,0,0,1,62.75,0l.58.59-212.17,211.8a27.89,27.89,0,0,1-39.22.09l-70.91-70.2a27.79,27.79,0,0,1-.07-39.45l73.27-73,27.33,27.33c-16,14.65-32.12,29.21-48.56,43.45a45.43,45.43,0,0,0-4.22,4.22,41.67,41.67,0,0,0,63,54.56c32.33-37.33,66-73.35,99.84-109.15C933.91,1113.06,950.09,1096.38,966.35,1079.77Zm274,159.36a41.67,41.67,0,0,0-4.22-58.78c-37.33-32.33-73.35-66-109.15-99.83-16.92-15.94-33.58-32.11-50.18-48.36a43.94,43.94,0,0,1,0-62.71c.46-.46.94-.9,1.4-1.36l214,214.37a27.92,27.92,0,0,1,.1,39.24l-70.2,70.92a27.55,27.55,0,0,1-19.73,8.23h0a27.68,27.68,0,0,1-19.71-8.17l-73-73.26L1136,1193c13.92,15.25,27.78,30.55,41.32,46.17a45.31,45.31,0,0,0,4.21,4.22A41.68,41.68,0,0,0,1240.33,1239.13ZM1000,191.35c-312.34,245-563.7,496.32-808.63,808.65,245,312.32,496.31,563.68,808.63,808.63,312.33-245,563.7-496.31,808.65-808.63C1563.65,687.66,1312.29,436.3,1000,191.35Zm0,127.45A123.54,123.54,0,1,1,876.46,442.34,123.54,123.54,0,0,1,1000,318.8ZM442.34,1123.53A123.54,123.54,0,1,1,565.88,1000,123.53,123.53,0,0,1,442.34,1123.53ZM1000,1681.19a123.54,123.54,0,1,1,123.54-123.54A123.54,123.54,0,0,1,1000,1681.19Zm557.66-804.73A123.54,123.54,0,1,1,1434.11,1000,123.53,123.53,0,0,1,1557.65,876.46Zm-147.14,42L1329,1000l81.54,81.53a162.24,162.24,0,0,1,0,229.44L1311,1410.5a162.25,162.25,0,0,1-229.45,0L1000,1329l-81.53,81.53a162.2,162.2,0,0,1-229.45,0L589.49,1311a162.21,162.21,0,0,1,0-229.44L671,1000l-81.53-81.54a162.22,162.22,0,0,1,0-229.45L689,589.5a162.21,162.21,0,0,1,229.46,0L1000,671l81.54-81.53a162.21,162.21,0,0,1,229.46,0L1410.51,689C1473.76,752.28,1473.76,855.21,1410.51,918.46ZM868.8,1080.23,648.27,859.68a79.11,79.11,0,0,1,0-111.9l99.51-99.51c29.9-29.9,82-29.9,111.91,0l81.53,81.53L910,761l-73-73.25a55.16,55.16,0,0,0-39.33-16.33h-.07a55.11,55.11,0,0,0-39.41,16.47L688,758.81a55.66,55.66,0,0,0,.17,78.29l212.26,212.61C889.94,1059.92,879.47,1070.17,868.8,1080.23Zm371.65-263.41a41.68,41.68,0,1,0-63.12-54.45c-32.26,37.4-65.92,73.41-99.76,109.24q-24,25.29-48.5,50.09a43.87,43.87,0,0,1-61.67.83l215.06-214.7a27.88,27.88,0,0,1,39.24-.1l70.92,70.2a27.82,27.82,0,0,1,.05,39.48l-73.26,73-28.73-28.73c15-13.66,30-27.28,45.43-40.56A46.66,46.66,0,0,0,1240.45,816.82Z"/></svg>